# xmcd
#
# Track frame offsets: 
#        150
#        14828
#        28793
#        40736
#        55993
#        69421
#        82370
#        97454
#        112939
#        127287
#        141129
#        153577
#        168198
#        182613
#        197435
#        213531
#        227590
#        242633
#        256122
#        271093
#        283710
#        298649
#        317440
#
# Disc length: 4429 seconds
#
# Revision: 0
# Processed by: cddbd v1.4PL0 Copyright (c) Steve Scherf et al.
# Submitted via: ExactAudioCopy v0.90b3
#
DISCID=55114b17
DTITLE=Glen Campbell - The Legacy (1961-2002) - Disc 3 of 4
DYEAR=2003
DGENRE=Country
TTITLE0=Rhinestone Cowboy
TTITLE1=Country Boy (You've Got Your Feet In L.A.)
TTITLE2=Arkansas
TTITLE3=Don't Pull Your Love - Then You Can Tell Me Goodbye (Medley)
TTITLE4=Southern Nights
TTITLE5=Sunflower
TTITLE6=God Only Knows
TTITLE7=I'm Gonna Love You
TTITLE8=Can You Fool
TTITLE9=Highwayman
TTITLE10=Somethin' 'Bout You Baby I Like - Glen Campbell and Rita Coolid
TTITLE10=ge
TTITLE11=Any Which Way You Can
TTITLE12=I Was Too Busy Loving You
TTITLE13=Faithless Love
TTITLE14=A Lady Like You
TTITLE15=The Hand That Rocks The Cradle - Glen Campbell and Steve Warine
TTITLE15=r
TTITLE16=I Have You
TTITLE17=If These Walls Could Speak
TTITLE18=Unconditional Love
TTITLE19=She's Gone, Gone, Gone
TTITLE20=Show Me Your Way - Glen Campbell and Anne Murray
TTITLE21=Only One Life
TTITLE22=Somebody Like That
EXTD=2003 Capitol Nashville
EXTT0=
EXTT1=
EXTT2=
EXTT3=
EXTT4=
EXTT5=
EXTT6=
EXTT7=
EXTT8=
EXTT9=
EXTT10=
EXTT11=
EXTT12=
EXTT13=
EXTT14=
EXTT15=
EXTT16=
EXTT17=
EXTT18=
EXTT19=
EXTT20=
EXTT21=
EXTT22=
PLAYORDER=
